<svg xmlns="http://www.w3.org/2000/svg" width="37" height="37" viewBox="0 0 37 37" fill="none">
	<style>
    .main-path { fill: #24292f; }
    .accent-path { fill: #FFCA16; } 
    .main-stroke { stroke: #24292f; }

    @media (prefers-color-scheme: dark) {
      .main-path { fill: #EDEEF0; } 
      .main-stroke { stroke: #EDEEF0; }
    }
    </style>

	<g>
		<path
			class="accent-path"
			d="M16.3517 30.3354V30.1876C16.3517 29.8546 16.6233 29.583 16.9561 29.583H17.2393C17.5723 29.583 17.8439 29.3114 17.8439 28.9784V26.3787C17.8439 26.0457 17.5723 25.774 17.2393 25.774H16.5527V25.2206C16.5527 24.9417 16.7348 24.7059 17.0048 24.6356C17.1932 24.5866 17.3637 24.5334 17.5155 24.4769C17.7344 24.3943 17.9463 24.295 18.1513 24.1779C18.2468 24.1234 18.341 24.0982 18.4512 24.0982H18.9153C19.2484 24.0982 19.5197 24.3698 19.5197 24.7028V28.9784C19.5197 29.3114 19.7913 29.583 20.1244 29.583H20.1796C20.5126 29.583 20.7842 29.8546 20.7842 30.1876V30.3354C20.7842 30.6685 20.5126 30.9401 20.1796 30.9401H16.9561C16.6233 30.9401 16.3517 30.6685 16.3517 30.3354Z"
			fill="#fbc031"
		/>
		<path
			class="main-path"
			d="M10.9998 30.3355V26.1808C10.9998 25.8478 11.2714 25.5761 11.6044 25.5761H11.8358C12.1412 25.5761 12.3956 25.7994 12.4353 26.1022L12.4889 26.5107H12.5156C12.7167 26.1512 12.9537 25.884 13.2271 25.7097C13.5018 25.5339 13.7736 25.4459 14.0439 25.4459C14.2026 25.4459 14.3313 25.4566 14.4279 25.4791C14.4319 25.4802 14.4352 25.4809 14.4393 25.4818C14.4506 25.4842 14.4619 25.4867 14.4731 25.4891C14.5993 25.5187 14.6799 25.6427 14.6554 25.7701L14.4675 26.7554C14.4428 26.7554 14.3172 26.9715 14.187 26.9479C14.1719 26.9453 14.1574 26.9426 14.1427 26.9404C14.1396 26.9399 14.1367 26.9394 14.1336 26.9388C14.0483 26.9236 13.9459 26.9161 13.8271 26.9161C13.6323 26.9161 13.4266 26.9882 13.2082 27.1327C13.0198 27.2578 12.8607 27.4635 12.7311 27.7496C12.6939 27.8317 12.6772 27.9087 12.6772 27.9987V30.3355C12.6772 30.6685 12.4056 30.9401 12.0726 30.9401H11.6044C11.2714 30.9401 10.9998 30.6685 10.9998 30.3355Z"
			fill="#EDEEF0"
		/>
		<path
			class="main-path"
			d="M4.79883 30.3355V26.1808C4.79883 25.8478 5.07045 25.5761 5.40348 25.5761H5.66126C5.956 25.5761 6.20287 25.7821 6.25585 26.0719L6.28793 26.2469H6.31464C6.5359 26.0269 6.78569 25.8386 7.0653 25.683C7.34491 25.5245 7.66681 25.4459 8.03122 25.4459C8.6156 25.4459 9.03969 25.6407 9.30347 26.0303C9.56728 26.4197 9.69929 26.9506 9.69929 27.6229V30.3355C9.69929 30.6685 9.42771 30.9401 9.0949 30.9401H8.62629C8.29348 30.9401 8.0219 30.6685 8.0219 30.3355V27.8301C8.0219 27.461 7.97158 27.2097 7.87116 27.0779C7.77056 26.9459 7.61338 26.88 7.39834 26.88C7.21134 26.88 7.05283 26.9208 6.92081 27.0009C6.85092 27.0441 6.77655 27.098 6.69774 27.1625C6.55263 27.2814 6.47626 27.4428 6.47626 27.6302V30.3355C6.47626 30.6685 6.20468 30.9401 5.87164 30.9401H5.40348C5.07045 30.9401 4.79883 30.6685 4.79883 30.3355Z"
			fill="#EDEEF0"
		/>
		<path
			class="main-stroke"
			d="M18.0207 16.6493C17.8698 14.8095 18.572 13.4601 19.2432 12.4145C19.9186 11.3681 20.8476 10.5376 22.0343 9.92285C23.2203 9.3074 24.582 9 26.1133 9C27.3828 9 28.6418 9.25071 29.8816 9.75865C30.814 10.1307 31.6644 10.6473 32.4355 11.3071C32.867 11.677 32.9352 12.3469 32.5885 12.8047L31.171 14.6765C30.8471 15.1045 30.2758 15.2055 29.8368 14.9134C29.3695 14.6017 28.9078 14.3488 28.4523 14.157C27.7569 13.8547 26.9741 13.7065 26.1133 13.7065C25.316 13.7065 24.6889 13.8699 24.2368 14.2035C23.7799 14.5261 23.5511 14.9875 23.5511 15.5826C23.5511 16.0135 23.6924 16.3718 23.9742 16.6595C24.2561 16.9415 24.6399 17.2023 25.1265 17.4334C25.6075 17.6587 26.1767 17.905 26.8232 18.1666L29.5363 19.2994C30.426 19.6736 31.1944 20.1452 31.836 20.7193C32.4783 21.289 32.969 21.9705 33.3094 22.7655C33.6498 23.5546 33.82 24.4927 33.82 25.5798C33.82 26.8514 33.4941 28.0307 32.838 29.117C32.1916 30.2041 31.2482 31.0812 30.0132 31.7475C28.7783 32.4087 27.2856 32.7422 25.5303 32.7422C24.11 32.7422 23.252 32.573 21.7965 32.041M23.1672 27.5286C24.5669 27.99 24.8005 28.0147 25.6516 28.0147C26.6288 28.0147 27.3435 27.8353 27.7955 27.4719C28.2531 27.113 28.4812 26.6254 28.4812 26.0106C28.4812 25.5594 28.3551 25.1954 28.1022 24.9185C27.8555 24.6482 27.4978 24.3975 27.0395 24.1737C27.0347 24.1715 27.0306 24.1686 27.0251 24.1664C26.5799 23.939 26.0506 23.6927 25.4414 23.4362C25.4249 23.4296 25.4111 23.4231 25.3953 23.4158L23.0301 22.2728"
			stroke="#EDEEF0"
			stroke-width="2"
			stroke-miterlimit="22.9256"
			stroke-linecap="round"
		/>
		<path
			class="main-path"
			d="M5.49939 21.8449V20.5341C5.49939 20.3087 5.55711 20.1157 5.68099 19.9275L12.55 9.48754C12.7784 9.14 12.7965 8.72389 12.5992 8.35771C12.402 7.99155 12.0443 7.7781 11.6282 7.7781H6.39109C5.78318 7.7781 5.28775 7.28263 5.28775 6.67476V5.08439C5.28775 4.47648 5.78318 3.98105 6.39109 3.98105H18.1665C18.7744 3.98105 19.2698 4.47648 19.2698 5.08439V6.40359C19.2698 6.62906 19.2121 6.82206 19.0876 7.01028L12.2258 17.4244C11.9968 17.7719 11.9781 18.188 12.176 18.5542C12.3732 18.9209 12.7303 19.1344 13.147 19.1344H18.2428C18.8507 19.1344 19.3462 19.6298 19.3462 20.2377V21.8449C19.3462 22.4528 18.8507 22.9483 18.2428 22.9483H6.60273C5.99486 22.9483 5.49939 22.4528 5.49939 21.8449Z"
			fill="#EDEEF0"
		/>
	</g>
</svg>